<?xml version="1.0" encoding="utf-8"?>
<!-- Generator: Adobe Illustrator 19.0.0, SVG Export Plug-In . SVG Version: 6.00 Build 0)  -->
<svg version="1.1" id="Layer_1" xmlns="http://www.w3.org/2000/svg" xmlns:xlink="http://www.w3.org/1999/xlink" x="0px" y="0px"
	 viewBox="0 0 239.2 131.5" style="enable-background:new 0 0 239.2 131.5;" xml:space="preserve">
<style type="text/css">
	.st0{fill:#FFFFFF;}
</style>
<path class="st0" d="M161.1,9.4c0-1.2-0.4-2.1-1.3-2.9v0c0.4-0.3,1.2-1.3,1.2-2.8c0-2.2-1.4-3.5-3.9-3.5h-5.9v1.2l0.7,0.1
	c0.4,0.1,0.7,0.7,0.7,1.7v7.2c0,1-0.2,1.6-0.7,1.7l-0.7,0.1v1.2h6.4C159.7,13.3,161.1,12,161.1,9.4z M154.9,3.2c0-1,0.3-1.6,0.7-1.6
	h1.5c0.7,0,1.4,0.9,1.4,2.2c0,1.1-0.6,1.8-1.7,1.8h-1.9V3.2z M155.6,11.9c-0.4,0-0.7-0.5-0.7-1.5V7.1h1.8c1.1,0,1.8,0.9,1.8,2.2
	c0,1.2-0.6,2.5-1.7,2.5H155.6z M173.9,19.3L173.9,19.3c-0.3,0.1-0.4,0.2-0.5,0.2c-0.3,0.2-0.5,0.3-0.6,0.4c-0.2,0.1-0.3,0.2-0.3,0.2
	l-0.1,0.1c-0.1,0-0.1,0.1-0.2,0.1c-0.1,0-0.1,0-0.2,0.1c-0.1,0.2-0.2,0.5-0.2,0.8c0,1,0.4,1.5,1.3,1.5h0.6l1.3-0.3
	c0.4-0.3,0.5-0.6,0.5-0.9v-0.3c-0.1,0-0.1-0.1-0.1-0.2c0,0,0.1-0.1,0.1-0.2c0-0.6-0.2-1.1-0.7-1.4c-0.1,0-0.3,0-0.6,0
	C174.1,19.4,174,19.3,173.9,19.3z M159.9,47.6l2.2-0.3v-3.7h-17.3v3.7l2.2,0.3c1.6,0.3,2.4,2.1,2.4,5.2v7.8h-11.8v-7.8
	c0-3,0.9-4.9,2.4-5.2l2.2-0.3v-3.7h-17.3v3.7l2.3,0.3c1.4,0.3,2.3,2.1,2.3,5.2v22.4c0,3-0.6,4.8-2.3,5.2l-2.3,0.3v3.7h17.4v-3.7
	l-2.3-0.3c-1.8-0.3-2.4-2.2-2.4-5.2v-8.9h11.8v8.9c0,3-0.6,4.8-2.4,5.2l-2.2,0.3v3.7h17.3v-3.7l-2.2-0.3c-1.8-0.3-2.4-2.2-2.4-5.2
	V52.8C157.6,49.8,158.4,47.9,159.9,47.6z M225.9,39.1l0.8,0.4c0.3,0.1,0.7,0.2,1.1,0.2l0.7-0.1c0.5,0,0.8,0,1.1,0
	c0.3,0,0.5,0,0.7-0.1c0.5-0.2,1-0.4,1.4-0.7l0.1-0.4c0.4-0.3,0.7-0.5,0.7-0.6l0.3-0.8c0.1-0.3,0.2-0.5,0.3-0.8c0-0.1,0-0.2-0.1-0.4
	c-0.1-0.2-0.1-0.3-0.2-0.5c-0.1-0.2-0.2-0.3-0.2-0.5c-0.1-0.1-0.1-0.2-0.1-0.3c0-0.1,0-0.2,0.1-0.3c0.1-0.2,0.1-0.3,0.1-0.3
	c-0.1-0.4-0.3-0.7-0.4-1.1c0.1-0.2,0.1-0.4,0.1-0.5c0-0.6-0.3-1.4-0.9-2.4h0.1l0.1-0.2c0.1-0.4,0.2-0.9,0.2-1.6l1.3-0.1
	c0.8,0.5,1.4,0.8,1.8,0.8c1,0,1.4-0.3,1.4-1c0-0.2-0.1-0.5-0.2-0.7c-0.2-0.2-0.4-0.5-0.6-0.7c-0.3-0.2-0.5-0.4-0.9-0.5
	c-0.3-0.1-0.6-0.2-1-0.2c-0.3,0-0.7,0.1-1.2,0.3c-0.1,0-0.3,0-0.4,0h-0.3c-0.3,0.1-0.9,0.4-1.7,0.9c-0.7,0.5-1.2,0.9-1.3,1.2
	c-0.2,0.1-0.3,0.5-0.5,1.1c-0.2,0.5-0.3,0.9-0.3,1c0,0.5,0.2,1.2,0.5,2c0.3,0.9,0.5,1.4,0.5,1.6c0.1,0.4,0.2,0.7,0.3,1l0,0.3
	c0.1,0.1,0.2,0.2,0.2,0.4c0,0.9-0.1,1.5-0.3,1.7c-0.2,0.1-0.6,0.2-0.9,0.2c-0.3,0-0.7-0.2-1.1-0.6c-0.4-0.4-0.9-0.6-1.5-0.6
	c-0.9,0-1.3,0.4-1.3,1.1c0,0.6,0.1,0.9,0.3,1.2C224.8,38.6,225.2,38.9,225.9,39.1z M226,24.2c0.4,0.1,0.8,0.2,1,0.2
	c0.1,0,0.2,0,0.3-0.1c0.1-0.1,0.3-0.1,0.5-0.2c0.2-0.1,0.3-0.1,0.5-0.2c0.2-0.1,0.3-0.1,0.4-0.1h0.1c0.2-0.1,0.5-0.2,0.6-0.2
	c0.2-0.1,0.3-0.1,0.5-0.2c0.1-0.2,0.3-0.3,0.4-0.4c0.1-0.1,0.2-0.2,0.2-0.3c0.2-0.9,0.4-1.4,0.4-1.6c0-0.5-0.2-0.9-0.7-1.3
	c-0.5-0.4-1-0.5-1.7-0.5c-0.3,0-0.6,0-0.8,0.1c-0.3,0.1-0.5,0.2-0.7,0.3c-0.2,0.1-0.4,0.2-0.5,0.3c-0.1,0.1-0.2,0.1-0.3,0.1
	c-0.1,0.1-0.2,0.3-0.2,0.6c0,0.4,0.1,0.7,0.4,0.8c0.5,0.2,0.8,0.4,0.9,0.4l-0.2,0.2c0,0,0,0.1,0,0.2c0,0.2-0.3,0.4-0.8,0.6
	c-0.7,0.5-1,0.9-1,0.9C225.3,23.9,225.5,24,226,24.2z M209.9,33.3c-0.2,0.1-0.4,0.3-0.7,0.5c-0.5,0.4-0.8,0.8-0.8,1.3v0.2
	c0,0-0.1,0-0.1,0c0,0-0.1,0-0.1,0c-0.2,1.4-0.5,2.2-0.9,2.3c0.1,0.2,0.2,0.3,0.3,0.4c0,1.2,0.8,1.8,2.4,1.8c0.4,0,1.1-0.2,1.8-0.7
	L212,39c1-0.7,1.4-1.2,1.5-1.2c0.2-0.4,0.5-0.7,0.9-0.9c0.1-0.4,0.4-0.7,1-0.7c0.2,0.1,0.3,0.2,0.3,0.4c0,0.3-0.1,0.6-0.3,0.9
	c-0.2,0.4-0.3,0.6-0.3,0.7c0,0.4,0.2,0.7,0.5,1c0.3,0.3,0.7,0.5,1.1,0.5c0.8,0,1.5-0.2,2.2-0.7h0.3c1.8-1.4,2.6-2.5,2.6-3.3
	c0-0.4,0-0.6-0.1-0.8v-0.1c0.3-0.2,0.4-0.4,0.5-0.6c-0.4-0.2-0.6-0.3-0.6-0.3c-0.2,0-0.4,0.2-0.5,0.5c-0.1,0.3-0.2,0.6-0.2,0.8
	l-0.4,0.1c-0.3,0.5-0.7,0.7-1,0.7l-0.1-0.1c0.1-0.4,0.1-0.5,0.1-0.4c0-0.1,0-0.2,0-0.3c0-0.1,0-0.2,0-0.2c0-0.1,0.1-0.1,0.3-0.2
	c0-0.1,0-0.3,0-0.4v-0.2l0.3-0.2c-0.1-0.1-0.2-0.2-0.2-0.3c-0.1-0.1-0.1-0.2-0.2-0.2l0.2,0.1l0.1-0.1c0-0.1,0.1-0.2,0.1-0.3
	c0-0.1,0-0.2,0-0.3c0.1-0.2,0.2-0.4,0.3-0.6c0.1-0.2,0.1-0.3,0.2-0.4l0-0.4c0.3-0.6,0.6-1.1,0.9-1.6c0.2-0.5,0.4-0.9,0.6-1.2
	c0-0.3,0.1-0.7,0.3-1c0.2-0.4,0.2-0.7,0.2-0.9c0-0.7-0.1-1.1-0.2-1.3c-0.4-0.1-0.6-0.2-0.8-0.3c-0.4,0.1-0.7,0.3-0.8,0.7
	c-0.4,0.3-0.9,0.6-1.7,0.7c-0.5,0.1-0.9,0.2-1.2,0.3c-0.3,0.1-0.5,0.1-0.7,0.2c-0.2,0.2-0.4,0.3-0.5,0.4c-0.1,0.1-0.3,0.2-0.4,0.3
	h-0.5l-1.8,1.4c-0.2,0.2-0.4,0.4-0.6,0.6c-0.2,0.2-0.3,0.3-0.3,0.4c-1.5,1.4-2.2,2.3-2.2,2.5C210.3,33,210.1,33.2,209.9,33.3z
	 M210.8,36.1c0-0.1,0.3-0.8,1-2c-0.1-0.2-0.1-0.3,0-0.4c0.3-0.3,0.6-0.5,0.9-0.8c0.3-0.3,0.7-0.6,1-0.8l0.1-0.2
	c0.2-0.2,0.3-0.3,0.5-0.5c0.2-0.2,0.4-0.3,0.5-0.5c0,0,0.5-0.1,1.5-0.3c0.5-0.3,0.7-0.4,0.8-0.4c0.1,0,0.4,0.1,1,0.3v0.4
	c-0.7,0.7-1.2,1.4-1.6,2.1c-0.1,0-0.2,0-0.4,0c-0.3,0.4-0.5,0.7-0.7,0.9c-0.2,0.3-0.4,0.5-0.5,0.6l-0.2,0.1l-0.3,0.5l-0.2,0
	c-0.3,0.4-0.6,0.6-0.9,0.8l0,0.2c-0.3,0.2-1,0.4-2.2,0.7l-0.3-0.2c0-0.1,0-0.2,0-0.3V36.1z M170.5,13.5c2.6,0,4.4-2.2,4.3-4.9V4.7
	c0-2.6-1.7-4.7-4.3-4.7c-2.6,0-4.3,2.3-4.3,4.7l0,4C166.1,11.6,167.8,13.5,170.5,13.5z M169,3.7c0-1.2,0.2-2.3,1.5-2.3
	c1.2,0,1.5,1.1,1.5,2.3v5.6c0,1.4-0.3,2.9-1.5,2.9c-1.3,0-1.5-1.3-1.5-2.9V3.7z M158.5,28.2c-0.2,0.1-0.3,0.5-0.5,1.1
	c-0.2,0.5-0.3,0.9-0.3,1c0,0.5,0.2,1.2,0.5,2c0.3,0.9,0.5,1.4,0.5,1.6c0.1,0.4,0.2,0.7,0.3,1l0,0.3c0.1,0.1,0.2,0.2,0.2,0.4
	c0,0.9-0.1,1.5-0.3,1.7c-0.2,0.1-0.6,0.2-0.9,0.2c-0.3,0-0.7-0.2-1.1-0.6c-0.4-0.4-0.9-0.6-1.5-0.6c-0.9,0-1.3,0.4-1.3,1.1
	c0,0.6,0.1,0.9,0.3,1.2c0.2,0.2,0.6,0.4,1.3,0.6l0.8,0.4c0.3,0.1,0.7,0.2,1.1,0.2l0.7-0.1c0.4,0,0.8,0,1.1,0c0.3,0,0.5,0,0.7-0.1
	c0.5-0.2,1-0.4,1.4-0.7l0.1-0.4c0.4-0.3,0.7-0.5,0.7-0.6l0.3-0.8c0.1-0.3,0.2-0.5,0.3-0.8c0-0.1,0-0.2-0.1-0.4
	c-0.1-0.2-0.1-0.3-0.2-0.5c-0.1-0.2-0.2-0.3-0.2-0.5c-0.1-0.1-0.1-0.2-0.1-0.3c0-0.1,0-0.2,0.1-0.3c0.1-0.2,0.1-0.3,0.1-0.3
	c-0.1-0.4-0.3-0.7-0.4-1.1c0.1-0.2,0.1-0.4,0.1-0.5c0-0.6-0.3-1.4-0.9-2.4h0.1l0.1-0.2c0.1-0.4,0.2-0.9,0.2-1.6l1.3-0.1
	c0.8,0.5,1.4,0.8,1.8,0.8c1,0,1.4-0.3,1.4-1c0-0.2-0.1-0.5-0.2-0.7c-0.2-0.2-0.4-0.5-0.6-0.7c-0.3-0.2-0.5-0.4-0.9-0.5
	c-0.3-0.1-0.6-0.2-1-0.2c-0.3,0-0.7,0.1-1.2,0.3c-0.1,0-0.3,0-0.4,0h-0.3c-0.3,0.1-0.9,0.4-1.7,0.9C159.1,27.6,158.7,28,158.5,28.2z
	 M193.2,32.9c-0.1,0.4-0.2,0.7-0.2,0.9c-1.4,2-2.2,3.4-2.2,4.1l0.2,0.2c0.1,1.1,0.8,1.6,2.1,1.6c0.9,0,1.5-0.3,1.9-0.8
	c0.2-0.4,0.5-1,0.8-1.8c0.2-0.7,0.5-1.1,0.8-1.2c0-0.5,0-0.8,0-0.7c0.4-0.4,0.7-0.9,0.8-1.5c0.6-0.8,1-1.5,1.1-1.9c0,0,0-0.1,0-0.1
	c0,0,0-0.1,0-0.1c0.1-0.1,0.3-0.2,0.4-0.2c0.4-0.7,0.9-1.4,1.5-2c0.8-0.9,1.5-1.4,2.1-1.4c0.3,0,0.7,0.4,1.1,1.2
	c-0.1,0.2-0.2,0.3-0.3,0.4c-0.1,0.1-0.1,0.2-0.2,0.3l0.1,0.2l0,0.2c0,0.2-0.1,0.5-0.3,0.8c-0.2,0.2-0.3,0.4-0.4,0.6
	c-0.2,0.6-0.4,1-0.5,1.2c-0.5,1.5-0.9,2.3-1,2.6c-0.2,0.4-0.4,0.6-0.4,0.7c0.1,0.5,0.1,0.9-0.3,1.3l0,0.2l0,0.2
	c-0.2,0.3-0.3,0.4-0.4,0.6c0,0.8,0.5,1.3,1.6,1.3c0.6,0,1.4-0.2,2.3-0.7c0.2,0,0.4,0,0.4,0c0.4-0.2,0.7-0.5,0.9-0.9
	c0.7-0.5,1-0.8,1.1-0.9v-0.2c0.1-0.1,0.3-0.2,0.4-0.2c0.3-0.4,0.4-0.8,0.4-1.2c0-0.5-0.2-0.8-0.7-0.8c-0.4,0.3-0.8,0.4-1.1,0.4
	c-0.2,0-0.4-0.2-0.4-0.5l0.2-0.2l0.3-0.1c0.3-1.1,0.5-1.9,0.7-2.2c0-0.4,0-0.6,0-0.7c0.5-1.4,1-2.3,1.3-2.7c0-0.2,0-0.4,0-0.6v-0.6
	c0-0.4-0.3-0.8-0.7-1.1c0-0.2-0.1-0.3-0.2-0.4l-0.4,0l-0.1-0.1c-0.2,0-0.4,0-0.6-0.1c-0.3,0-0.6,0-1,0c-0.7,0-1.3,0.1-1.8,0.4
	l-0.4,0.1l-0.1,0.2c-0.5,0.3-0.9,0.6-1.2,0.7c-1.2,1.1-1.8,1.8-1.9,2c-0.3,0.2-0.6,0.3-0.7,0.3h-0.1c0.1-0.3,0.2-0.5,0.4-0.6
	c0.2-0.5,0.3-1,0.3-1.6c0-0.3-0.3-0.6-1-0.8l-0.1-0.3c-0.4-0.2-0.8-0.4-1.3-0.4c0,0-0.4,0.2-1.2,0.5c-1,0.4-1.7,0.8-2,1.2
	c-0.2,0.3-0.3,0.5-0.5,0.8c-0.2,0.3-0.3,0.5-0.5,0.8c0.1,0.5,0.2,0.8,0.3,1c0.1,0.1,0.3,0.1,0.4,0.1c0.4,0,0.9-0.2,1.7-0.5l0.5-0.4
	l0,0.6c-0.2,0.4-0.2,0.6-0.2,0.7c-0.1,0.2-0.3,0.4-0.6,0.5c0.1,0.1,0.1,0.2,0.2,0.3c0,0.3-0.1,0.6-0.4,0.9
	C193.6,32.4,193.4,32.7,193.2,32.9z M194.6,12.5c0.3,0,0.7,0.2,1.2,0.4c0.5,0.2,1.2,0.5,2,0.5c2.1,0,3.8-1.6,3.8-4
	c0-2.5-1.2-3.6-4-4.5c-1.6-0.5-2.3-0.8-2.3-2c0-0.8,0.5-1.7,1.7-1.7c0.9,0,1.9,0.7,2.3,1.2c0.3,0.4,0.6,1,0.7,1.6h1V0.1h-1
	c-0.1,0.1-0.3,0.3-0.6,0.3c-0.3,0-0.6-0.1-1-0.2C198,0.1,197.3,0,196.7,0c-2.1,0-3.8,1.4-3.8,3.6c0,2.1,0.8,3.3,2.6,4.1l1.6,0.7
	c0.7,0.3,1.8,0.8,1.8,2c0,0.8-0.6,1.6-1.5,1.6c-1.4,0-2.5-0.7-3-1.5c-0.3-0.5-0.5-1-0.6-1.5h-1v4.5h1C194,13,194.2,12.5,194.6,12.5z
	 M194.2,57.7V43.6H166v3.7l2.3,0.3c1.4,0.3,2.3,2.1,2.3,5.2v22.4c0,3-0.6,4.9-2.3,5.2l-2.3,0.3v3.7h28.2V69.7h-4.5v3.2
	c0,4-1.2,7.3-6.2,7.3c-3.7,0-4.7-1.9-4.7-4.5V65.2h7.1v-4.6h-7.1v-8.4c0-3,1.1-4.5,4.7-4.5c3.4,0,6.2,2.5,6.2,7.4v2.7H194.2z
	 M210.9,12.1l-0.7-0.1c-0.5-0.1-0.7-0.7-0.7-1.7V3.1c0-1,0.3-1.6,0.7-1.7l0.7-0.1V0.1h-5v1.2l0.7,0.1c0.4,0.1,0.7,0.7,0.7,1.7v7.2
	c0,1-0.2,1.6-0.7,1.7l-0.7,0.1v1.2h5.1V12.1z M217.2,66.6c3.3,0,4.4,4.1,4.9,7.8c1,7.9,3.1,10.3,8.3,10.3c4.2,0,7-2.3,7-11.3v-3
	h-4.2v3c0,1.4-0.3,3.6-1.4,3.6c-1.1,0-1.4-1.7-1.8-5.4c-0.4-3.6-1.3-6-3.7-7.6v-0.1c2.7-1.4,5.2-4.3,5.2-9.4
	c0-6.7-4.3-10.8-13.5-10.8h-20.2v3.7l2.3,0.3c1.4,0.3,2.3,2.1,2.3,5.2v22.4c0,3-0.6,4.8-2.3,5.2l-2.3,0.3v3.7h17.7v-3.7l-1.7-0.2
	c-2.6-0.3-3.4-2.3-3.4-5.3v-8.5H217.2z M210.4,53.1c0-3.1,0.9-3.9,2.4-3.9h5.1c2.4,0,4.9,1.7,4.9,5.8c0,3.5-2.5,5.5-4.9,5.5h-7.5
	V53.1z M181.3,12.5c0.3,0,0.7,0.2,1.2,0.4c0.5,0.2,1.2,0.5,2,0.5c2.1,0,3.8-1.6,3.8-4c0-2.5-1.2-3.6-4-4.5c-1.6-0.5-2.3-0.8-2.3-2
	c0-0.8,0.5-1.7,1.7-1.7c0.9,0,1.9,0.7,2.3,1.2c0.3,0.4,0.6,1,0.7,1.6h1V0.1h-1c-0.1,0.1-0.3,0.3-0.6,0.3c-0.3,0-0.6-0.1-1-0.2
	c-0.4-0.1-1.1-0.3-1.7-0.3c-2.1,0-3.8,1.4-3.8,3.6c0,2.1,0.8,3.3,2.6,4.1l1.6,0.7c0.7,0.3,1.8,0.8,1.8,2c0,0.8-0.6,1.6-1.5,1.6
	c-1.4,0-2.5-0.7-3-1.5c-0.3-0.5-0.5-1-0.6-1.5h-1v4.5h1C180.8,13,181,12.5,181.3,12.5z M174.8,37.8c0.1,0.2,0.2,0.3,0.3,0.4
	c0,1.2,0.8,1.8,2.4,1.8c0.4,0,1.1-0.2,1.8-0.7l0.1-0.2c1-0.7,1.4-1.2,1.5-1.2c0.2-0.4,0.5-0.7,0.9-0.9c0.1-0.4,0.4-0.7,1-0.7
	c0.2,0.1,0.3,0.2,0.3,0.4c0,0.3-0.1,0.6-0.3,0.9c-0.2,0.4-0.3,0.6-0.3,0.7c0,0.4,0.2,0.7,0.5,1c0.3,0.3,0.7,0.5,1.1,0.5
	c0.8,0,1.5-0.2,2.2-0.7h0.3c1.8-1.4,2.6-2.5,2.6-3.3c0-0.4,0-0.6-0.1-0.8v-0.1c0.3-0.2,0.4-0.4,0.5-0.6c-0.4-0.2-0.6-0.3-0.6-0.3
	c-0.2,0-0.4,0.2-0.5,0.5c-0.1,0.3-0.2,0.6-0.2,0.8l-0.4,0.1c-0.3,0.5-0.7,0.7-1,0.7l-0.1-0.1c0.1-0.4,0.1-0.5,0.1-0.4
	c0-0.1,0-0.2,0-0.3c0-0.1,0-0.2,0-0.2c0-0.1,0.1-0.1,0.3-0.2c0-0.1,0-0.3,0-0.4v-0.2l0.3-0.2c-0.1-0.1-0.2-0.2-0.2-0.3
	c-0.1-0.1-0.1-0.2-0.2-0.2l0.2,0.1l0.1-0.1c0-0.1,0.1-0.2,0.1-0.3c0-0.1,0-0.2,0-0.3c0.1-0.2,0.2-0.4,0.3-0.6
	c0.1-0.2,0.1-0.3,0.2-0.4l0-0.4c0.3-0.6,0.6-1.1,0.9-1.6c0.2-0.5,0.4-0.9,0.6-1.2c0-0.3,0.1-0.7,0.3-1c0.2-0.4,0.2-0.7,0.2-0.9
	c0-0.7-0.1-1.1-0.2-1.3c-0.4-0.1-0.6-0.2-0.8-0.3c-0.4,0.1-0.7,0.3-0.8,0.7c-0.4,0.3-0.9,0.6-1.8,0.7c-0.5,0.1-0.9,0.2-1.2,0.3
	c-0.3,0.1-0.5,0.1-0.7,0.2c-0.2,0.2-0.4,0.3-0.5,0.4c-0.2,0.1-0.3,0.2-0.4,0.3h-0.5l-1.8,1.4c-0.2,0.2-0.4,0.4-0.6,0.6
	c-0.1,0.2-0.3,0.3-0.3,0.4c-1.5,1.4-2.2,2.3-2.2,2.5c-0.2,0.2-0.5,0.3-0.7,0.5c-0.2,0.1-0.4,0.3-0.7,0.5c-0.5,0.4-0.8,0.8-0.8,1.3
	v0.2c0,0-0.1,0-0.1,0c0,0-0.1,0-0.1,0C175.5,36.8,175.2,37.6,174.8,37.8z M178.2,36.1c0-0.1,0.3-0.8,1-2c-0.1-0.2-0.1-0.3,0-0.4
	c0.3-0.3,0.6-0.5,0.9-0.8c0.3-0.3,0.7-0.6,1-0.8l0.1-0.2c0.1-0.2,0.3-0.3,0.5-0.5c0.2-0.2,0.4-0.3,0.5-0.5c0,0,0.5-0.1,1.5-0.3
	c0.5-0.3,0.7-0.4,0.8-0.4c0.1,0,0.4,0.1,1,0.3v0.4c-0.7,0.7-1.2,1.4-1.6,2.1c-0.1,0-0.2,0-0.4,0c-0.3,0.4-0.5,0.7-0.7,0.9
	c-0.2,0.3-0.4,0.5-0.5,0.6l-0.2,0.1l-0.3,0.5l-0.2,0c-0.3,0.4-0.6,0.6-0.9,0.8l0,0.2c-0.3,0.2-1,0.4-2.2,0.7l-0.3-0.2
	c0-0.1,0-0.2,0-0.3V36.1z M223.2,8.6h-1.3v1c0,1.3-0.4,2.4-1.8,2.4c-1.1,0-1.4-0.6-1.4-1.4V7.1h2.1V5.6h-2.1V2.9
	c0-1,0.3-1.5,1.4-1.5c1,0,1.8,0.8,1.8,2.4v0.9h1.3V0.1h-8.2v1.2l0.7,0.1c0.4,0.1,0.7,0.7,0.7,1.7v7.2c0,1-0.2,1.6-0.7,1.7l-0.7,0.1
	v1.2h8.2V8.6z M167.7,35.6c0,0.1-0.1,0.2-0.1,0.2c0,0.1,0,0.1,0,0.2c-0.2,0.5-0.3,0.9-0.4,1.2c-0.2,0.3-0.3,0.6-0.4,0.9
	c0.1,0.5,0.1,0.7,0.2,0.8c0,0.1,0.3,0.3,0.8,0.5c0.5,0.2,0.9,0.3,1,0.3c0.2,0,0.5,0,0.7-0.1c0.3-0.1,0.6-0.1,0.8-0.2
	c0.3-0.1,0.5-0.2,0.8-0.3c0.2-0.1,0.4-0.2,0.5-0.4c0.2,0,0.3,0,0.4-0.1c0.1,0,0.2,0,0.2,0c0.2-0.2,0.4-0.4,0.6-0.6
	c0.2-0.2,0.3-0.3,0.4-0.3v-0.5c0.4-0.6,0.6-1.1,0.6-1.4l-0.1-0.3h-0.4c-0.4,0.2-0.7,0.4-1,0.5c-0.3,0.2-0.5,0.3-0.7,0.4l-0.1-0.9
	c0.1-0.1,0.2-0.2,0.3-0.3c0.1-0.1,0.1-0.2,0.2-0.3c0.2-0.4,0.3-0.8,0.4-1.1c0.1-0.3,0.2-0.6,0.2-0.8c0.3-0.5,0.4-0.8,0.4-0.9v-0.3
	c0,0,0-0.1,0-0.2c0.5-0.7,0.8-1.2,1.1-1.6l0-0.2c0,0,0-0.1,0-0.2c0-0.1,0-0.2-0.1-0.3l0.3-0.2c0.2-0.5,0.3-0.9,0.3-1.4
	c0-0.5-0.1-0.8-0.3-0.9c-0.2-0.1-0.3-0.1-0.4-0.2c-0.1-0.1-0.3-0.1-0.4-0.2l-0.3-0.1c-0.2,0-0.3,0.1-0.5,0.2c-0.6,0.3-1,0.4-1.3,0.5
	c-0.1,0.1-0.2,0.2-0.2,0.3c-0.1,0.1-0.1,0.1-0.2,0.2c-0.1,0-0.2,0.1-0.3,0.2c-0.2,0.1-0.4,0.2-0.7,0.3c-0.3,0.1-0.6,0.4-0.9,0.8
	c-0.1,0-0.2,0.1-0.3,0.1c-0.1,0-0.1,0-0.2,0.1c-0.1,0.2-0.1,0.4-0.1,0.4l-0.4,0.1c-0.1,0.2-0.2,0.4-0.2,0.5c0,0.4,0.2,0.6,0.4,0.6
	c0.3,0,0.5-0.1,0.6-0.2c0,0,0.1-0.1,0.1-0.1c0,0,0.1-0.1,0.1-0.1c0.1,0,0.2,0,0.5,0.1v0.5c-0.4,0.7-0.6,1.2-0.7,1.6l-0.1,0l0.2,0.4
	c0,0.1-0.1,0.2-0.1,0.2c0,0.6,0,0.9-0.2,1.1l0.1,0.2c-0.2,0.3-0.4,0.5-0.6,0.6C168,35.3,167.8,35.4,167.7,35.6z M62.1,2.8l2,10.5
	h2.3L69,3.7c0.4-1.4,0.6-2.2,1-2.3l0.7-0.1V0.1h-4v1.2l0.7,0.1c0.5,0.1,0.7,0.6,0.5,1.5L65.9,10l-1.4-7.2c-0.2-0.9,0-1.3,0.5-1.4
	l0.7-0.1V0.1h-5.1v1.2l0.7,0.1C61.6,1.5,61.9,2.1,62.1,2.8z M6.8,12.5c0.3,0,0.7,0.2,1.2,0.4c0.5,0.2,1.2,0.5,2,0.5
	c2.1,0,3.8-1.6,3.8-4c0-2.5-1.2-3.6-4-4.5C8.2,4.6,7.5,4.2,7.5,3c0-0.8,0.5-1.7,1.7-1.7c0.9,0,1.9,0.7,2.3,1.2
	c0.3,0.4,0.6,1,0.7,1.6h1V0.1h-1c-0.1,0.1-0.3,0.3-0.6,0.3c-0.3,0-0.6-0.1-1-0.2C10.3,0.1,9.6,0,8.9,0C6.9,0,5.2,1.4,5.2,3.6
	c0,2.1,0.8,3.3,2.6,4.1l1.6,0.7c0.7,0.3,1.8,0.8,1.8,2c0,0.8-0.7,1.6-1.5,1.6c-1.4,0-2.5-0.7-3-1.5c-0.3-0.5-0.5-1-0.6-1.5H5v4.5h1
	C6.3,13,6.5,12.5,6.8,12.5z M24.6,57.9l11.6,8.5l-4.4-13.7l11.6-8.5H29.1l-4.4-13.7l-4.4,13.7H5.8l11.6,8.5L13,66.4L24.6,57.9z
	 M116.1,126.9l-1.3-0.8l-0.5-0.4l0.1-0.5l0.3-0.9l0.6-1.3v-1l-0.3-1l-0.7-0.5l-0.9-0.4l-1-0.5l-1.5-0.4l-1.1-0.4l-0.6-0.4l-0.1-0.3
	l1-1.7l0.7-1l0.6-1.3l-0.7-1l-0.9-0.4l-0.9-0.2l-0.3-0.2l-0.6-2.1l-0.2-1.1l-0.7-1.4l-1.3-1l-0.7-0.9l0-1.1l0.2-1.7l-0.8-1.3
	l-1.3-0.5l-1.3,0.2l-1.5,1.5l-0.2,0.7l-0.2,0.2v0.7l-0.1,0.6l-0.2,0.2l-0.3,0.2l-1.7,0.6l-1.1,0.1h-2.5l-1-0.1l-1.5-0.8l-0.4-1.2
	l0.3-1.9l0.7-2.2l0.4-0.8l0.5-0.4l0.5-0.3l0.6-0.1l0.7,0.1l1.1,0l1.6,0.4l1.2-0.4l1.1-0.7l0.3-0.7l0-4.3l-0.4-1l-0.4-0.8l-0.9-0.6
	l-0.5-0.3l-0.8-0.8L97,89.2l-0.4-0.1l-0.5-0.7l-0.1-0.3v-1.4l0.3-0.4l0.2-1.1l-0.2-1.4L95.6,82l-0.9-0.7l-0.4-0.4L94,80.4l-0.1-0.5
	v-1H83.5c2.2-5.5,3.4-11.7,3.4-18.4c0-12-4.1-22.4-12.3-30.2h0c-5.1-5-11.2-8.4-17.9-10.3c-0.3-0.1-0.6-0.2-1-0.3c0,0-0.1,0-0.1,0
	c-2.1-0.5-4-0.8-5.5-1c-0.2,0-0.3,0-0.5-0.1c-0.3,0-0.6-0.1-0.9-0.1c-0.1,0-0.2,0-0.4,0c-0.4,0-0.7-0.1-1.1-0.1c-0.3,0-0.5,0-0.6,0
	c-1-0.1-2-0.1-3-0.1c-10.7,0-20.2,3.1-27.9,9.4L3.2,27.8L3.1,44.3C1,49.4,0,54.9,0,60.9C0,68,1.2,74.6,3.8,80.4
	c0.6,1.3,1.2,2.7,2,3.9c0,0.1,0.1,0.1,0.1,0.2c1.5,2.5,3.8,5.8,7.1,9l-0.3,0.9v1.5l0.3,1.4l-0.1,1.2l-0.4,1.1l-0.4,0.5l-0.6,0.6
	L9,104.4l-0.2,1.5l1.5,3.2l0.7,1l0.1,0.9l-0.3,3.6l-0.4,1.3l0.3,1l0.9,1l1.2,1.1l2.1,0.6l2.4,0l2.2-0.5l2.6,0.3l5.2,1.4l1.3,0.6
	l2.1,1.2l0.8,0.4h0.9l1.5-0.3l0.8-0.4l0.8-0.3l2.1-0.6l1-0.2l1-0.3h0.7l0.9-0.2h0.5l2.5,0.7l0.7-0.2l0.7-0.4l0.5-0.4l1.7-0.4
	l4.8-0.5h2.6l0.5,0.2l0.8,0.5l1.1,0.3l2.5-1.2h0.2l0.2,0.1l1,0.2l0.9,0.3l0.5,0.5l0.6,0.8l0.3,1l0.7,1.2l1,0.5h1l0.7-0.1l0.2,0.1
	l0.5,3.7l0.5,0.5l0.6,0.4l1.6,0.4l3,0l0.6,0.1l1.5,1.8l1.2,0.8H78l1-0.6l0.9-0.9l0.6-0.5l0.6,0.1l0.9,0.4l1.4,0.8l1.4,0.6H87
	l3.1-0.3l1.2-0.5l0.3-1l0-0.9l0.2-0.5l0.5-0.3l0.6-0.3l0.9-0.8l0.7-1.1l0.2-1.3l-0.2-1.1l-0.4-1l-0.6-0.8l-0.7-0.7l-0.2-0.3
	l-0.3-0.5v-0.2l0.1-0.2l0.3-0.2l0.5-0.1h0.5l0.2,0.1l0.3,0.3l0.4,0.7l0.4,0.9l1,0.9l0.6,0.4l0.4,0.4l0.4,0.1l0.1,0.2l0.4,1.2
	l1.6,1.5l1,0.8l0.9,0.8l1.1,0.7l0.9,0.7l0.7,0.5h1.5l1.7-1.2l0.7-0.4h0.9l1,0.4l1.1,0.9l1.9,1.8h1.2l2.7-0.7l1.6-0.9l-0.7-1.6
	L116.1,126.9z M69.8,54.2l0-0.2c-0.2-0.8-0.1-0.8,0.1-0.9c0.1,0,0.2-0.1,0.4-0.1c0.1,0,0.3-0.1,0.4-0.1l0,0c1.1,3.7,1.7,7.7,1.7,12
	c0,5.3-0.9,9.9-2.6,14h-9.9c-0.1-0.7-0.3-1.4-0.5-2c-0.1-0.2-0.1-0.5-0.2-0.6c-0.1-0.2-0.2-0.9-0.1-1c0.1,0,0.3,0,0.4,0h0.1
	c0.5,0,1.1,0,1.5-0.5c0.2-0.2,0.3-0.6,0.2-1.1c-0.1-0.6-0.5-0.9-0.8-1.1c-0.3-0.3-0.4-0.4-0.4-0.6c0,0,0,0,0,0c0,0,0,0,0.1,0
	c0.2,0.1,0.5,0.3,0.9,0.3c0.3,0,0.7-0.1,1.1-0.8c0.3-0.6,0.1-1.6,0.1-1.6c-0.1-0.4-0.3-0.8-0.5-1.1c-0.3-0.5-0.4-0.7-0.3-0.9
	c0.1-0.1,0.4-0.2,0.7-0.3c0.6-0.2,1.7-0.7,1.5-1.8l-0.1-0.3c0.3-0.2,0.5-0.5,0.6-1c0.1-0.3,0-0.5,0-0.7c0-0.2,0-0.4,0-0.4
	c0.1-0.2,0.6-0.4,0.9-0.6c0.2-0.1,0.4-0.2,0.6-0.3l0.8-0.5l-0.7-0.6c-0.5-0.5-0.6-0.7-0.4-1.2c0.2,0.1,0.5,0.3,0.8,0.3
	c0.9,0.2,1.3-0.2,1.6-0.4c0.6-0.6,0.5-1.6,0.4-2.5c0-0.2-0.1-0.5-0.1-0.7c0.3,0,0.6,0,0.8-0.1C70.2,56.1,69.9,54.7,69.8,54.2z
	 M12.5,71.6c0-0.2,0-0.4,0-0.5c0-0.4,0-0.9-0.4-1.5c-0.1-0.2-0.3-0.4-0.4-0.6c-0.3-0.4-0.5-0.7-0.6-1.1c0-0.1,0-0.2,0-0.2
	c0-0.3,0-0.6-0.2-0.9c-0.2-0.4-0.6-0.6-0.8-0.7c-0.1,0-0.2-0.1-0.2-0.1c-0.3-0.3-0.7-1.3-0.7-1.6c0,0,0.1-0.2,0.2-0.2
	c0.2-0.2,0.4-0.5,0.5-0.9c0.3-1.2,0-2.5-0.6-3.6c-0.6-1-1.6-1.5-2.4-2c-0.9-0.5-1.6-0.9-2-1.7c-0.4-0.8-0.3-2-0.3-3.2
	c0-0.4,0-0.7,0-1.1l0.2-22.4l37.5-0.2l4.6,0.9c6.2,1.2,11.4,4.4,15.9,9.8c2.6,3.2,4.6,6.5,6.1,10.1c0,0,0,0,0,0
	c-0.1,0.2-0.2,0.5-0.1,0.8c0.1,0.4,0.5,0.8,0.8,1c0,0,0,0,0,0c-0.1,0-0.2,0.1-0.3,0.1c-1.3,0.6-1,1.9-0.9,2.6l0,0.2
	c0,0.2,0.1,0.5,0.1,0.6c0,0,0,0-0.1,0.1c0,0-0.1,0-0.1,0c-0.6-0.1-1.1,0.1-1.5,0.6c-0.3,0.4-0.2,1-0.1,1.7c0,0.4,0.1,1.2,0,1.3
	c0,0-0.1,0-0.2,0c-0.1,0-0.2-0.1-0.4-0.2c-0.2-0.2-0.5-0.4-0.9-0.4c-0.8,0-1.1,0.8-1.2,1.2c-0.3,0.9-0.2,1.5,0.1,2.1
	c-0.4,0.2-0.9,0.5-1.2,0.9c-0.3,0.5-0.3,1-0.3,1.3c0,0.1,0,0.2,0,0.3c0,0,0,0,0,0c-0.5,0-1,0-1.4,0.3l-0.3,0.2l0,0.3
	c-0.1,0.6,0.1,0.9,0.3,1.1c0.1,0.1,0.1,0.1,0.2,0.2c-0.5,0.2-1.2,0.5-1.4,1.1c-0.4,0.9,0.1,1.7,0.4,2.3c0.1,0.2,0.3,0.5,0.3,0.6
	c0,0.1,0,0.2,0,0.3c-0.2-0.1-0.4-0.2-0.6-0.2c-0.7-0.1-1,0.1-1.2,0.3c-0.4,0.4-0.4,0.9-0.4,1.4c0,0.9,0.6,1.4,0.9,1.7
	c0,0,0.1,0.1,0.1,0.1h-0.1c-0.4,0-0.8,0-1.2,0.2c-1.1,0.7-0.8,2-0.6,2.6c0,0.2,0.1,0.4,0.2,0.7c0.2,0.8,0.6,2.2,0.4,2.8l1.3,0.7
	l0.3-0.4h8.4c-1,1.9-2.2,3.8-3.7,5.4c-4.7,5.3-10.3,7.9-17.8,7.9c-9.2-0.1-16.2-3.3-22.1-10.3c-0.6-0.8-1.2-1.5-1.8-2.3
	c-1-1.4-1.9-2.9-2.7-4.4c-0.4-0.8-1.2-1.5-2-1.9c-0.2-0.1-0.4-0.2-0.6-0.2c-0.5-0.1-0.9-0.2-1.4-0.2h0c-1,0-1.6,0.2-2.1,0.4
	c-0.1-0.1-0.2-0.2-0.4-0.3c-0.2-0.2-0.4-0.3-0.5-0.5C12.8,73.6,12.6,72.2,12.5,71.6z M116.1,128.9l-2.4,0.6h-0.5l-1.5-1.5l-1.2-1
	l-1.5-0.7h-1.5l-1.1,0.6l-1.3,1h-0.6l-1.2-0.9l-1-0.6l-0.9-0.8l-1-0.8l-1.2-1.2l-0.3-0.9l-0.6-0.9l-0.6-0.2l-0.2-0.2l-0.6-0.4
	l-0.7-0.7l-0.3-0.7l-0.6-0.9l-0.8-0.7l-0.7-0.2l-0.9,0l-0.9,0.2l-0.9,0.5l-0.6,0.8v1.1l0.5,0.9l0.3,0.5l0.7,0.7l0.4,0.5l0.3,0.6
	l0.1,0.8l-0.1,0.7l-0.4,0.6l-0.5,0.5l-0.6,0.3l-1,0.7l-0.5,1.2v0.9l-0.1,0.2l-0.3,0.1l-2.9,0.3h-1.7l-1-0.4l-1.4-0.8l-1-0.5
	l-1.6-0.3l-1.2,0.9l-0.8,0.8l-0.6,0.3h-0.5l-0.6-0.3l-1.1-1.4l-0.8-0.7l-1.1-0.2l-3,0l-1.2-0.3l-0.4-0.2l-0.1-0.1l-0.3-2.4l-0.2-1.5
	l-1.2-0.9l-1.1,0.2h-0.6l-0.3-0.2l-0.4-0.6l-0.3-1.1l-0.8-1.2l-0.9-0.9l-1.3-0.4l-0.8-0.1l-0.4-0.2h-0.9l-2.3,1.1l-0.3-0.1l-0.6-0.4
	l-1-0.5l-3,0l-5,0.5l-2.2,0.6l-0.6,0.6l-0.4,0.2l-0.2,0.1l-0.9-0.3l-1.4-0.3l-0.9,0l-0.9,0.2h-0.8l-1.2,0.4l-1.1,0.2l-1.2,0.3
	l-1.1,0.3l-0.9,0.4l-0.6,0.3l-1.2,0.3h-0.4l-2.6-1.4l-1.4-0.7l-5.4-1.5l-3-0.4l-2.3,0.5H15l-1.6-0.4l-0.8-0.8l-0.6-0.7l-0.1-0.3
	l0.3-0.9l0.4-4l-0.2-1.4l-0.8-1.1l-1.3-2.7l0.1-0.8l1.9-3.2l0.6-0.6l0.6-0.7l0.6-1.5l0.2-1.8l-0.3-1.4v-0.1
	c7.4,6.4,16.7,9.6,27.8,9.6h0.3c12.9,0,23.8-4,32.4-12c3.9-3.6,7-7.9,9.1-12.8h8.7l0.1,0.4l0.4,0.8l0.7,0.7l0.7,0.6l0.6,1l0.1,1.1
	L95,85.6l-0.4,0.6v2l0.2,0.7l0.9,1.4l0.7,0.2l0.2,0.1l0.8,0.7l1.1,0.8l0.5,1.1V97L99,97.1l-0.4,0.3l-0.7,0.2l-1.4-0.3l-1.1,0
	l-0.9-0.2l-1,0.2l-0.9,0.4l-0.9,0.7l-0.6,1.1l-0.8,2.5l-0.4,2.3l0.7,2.1l2.2,1.1l1.5,0.2l2.7,0l1.3-0.2l1.2-0.4l0.9-0.3l0.8-0.5
	l0.5-0.7l0.2-1l0-0.3l0.1-0.1l0.2-0.7l0.9-0.9l0.4-0.1l0.4,0.2l0.2,0.4l-0.1,1.3v1.7l1,1.3l1.2,1l0.4,0.7l0.2,1.1l0.3,1.4l0.4,1.4
	l1,0.7l0.9,0.2l0.4,0.2l-0.2,0.4l-0.7,1l-1.4,2.2l0.3,1.4l1.1,0.8l1.4,0.6l1.4,0.3l1,0.5l0.8,0.3l0.2,0.1l0,0.7l-0.5,1.1l-0.3,1
	l-0.3,1.6l1.3,1l1.3,0.8l1,0.7l0,0L116.1,128.9z M23.1,12.1L22.5,12c-0.5-0.1-0.7-0.7-0.7-1.7V7.5h3.4v2.9c0,1-0.2,1.6-0.7,1.7
	l-0.6,0.1v1.2h5v-1.2L28.2,12c-0.5-0.1-0.7-0.7-0.7-1.7V3.1c0-1,0.3-1.6,0.7-1.7l0.6-0.1V0.1h-5v1.2l0.6,0.1
	c0.5,0.1,0.7,0.7,0.7,1.7v2.5h-3.4V3.1c0-1,0.3-1.6,0.7-1.7l0.6-0.1V0.1h-5v1.2l0.7,0.1c0.4,0.1,0.7,0.7,0.7,1.7v7.2
	c0,1-0.2,1.6-0.7,1.7l-0.7,0.1v1.2h5.1V12.1z M38.2,12.1l-0.5-0.1c-0.8-0.1-1-0.8-1-1.7V7.6h2c1,0,1.3,1.3,1.4,2.5
	c0.3,2.6,0.9,3.3,2.4,3.3c1.2,0,2-0.8,2-3.7v-1h-1.2v1c0,0.5-0.1,1.2-0.4,1.2c-0.3,0-0.4-0.6-0.5-1.8c-0.1-1.2-0.4-1.9-1.1-2.5v0
	c0.8-0.4,1.5-1.4,1.5-3.1c0-2.2-1.3-3.5-3.9-3.5H33v1.2l0.7,0.1c0.4,0.1,0.7,0.7,0.7,1.7v7.2c0,1-0.2,1.6-0.7,1.7L33,12.1v1.2h5.2
	V12.1z M36.7,3.2c0-1,0.3-1.3,0.7-1.3h1.5c0.7,0,1.4,0.5,1.4,1.9c0,1.1-0.7,1.8-1.4,1.8h-2.2V3.2z M193.5,89h-20.2v3.7l2.3,0.3
	c1.4,0.3,2.3,2.1,2.3,5.2v22.4c0,3-0.6,4.8-2.3,5.2l-2.3,0.3v3.7H191c10.1,0,17.6-8.9,17.6-19.9C208.5,94.7,202.3,89,193.5,89z
	 M191.5,125h-3.3c-1.5,0-2.2-1.6-2.2-4.5v-22c0-3,0.1-4.9,2.4-4.9h4.9c3.1,0,5.6,2.6,5.6,15.6C198.9,115.5,196.7,125,191.5,125z
	 M237.9,8.8v1c0,0.5-0.1,1.2-0.4,1.2c-0.3,0-0.4-0.6-0.5-1.8c-0.1-1.2-0.4-1.9-1.1-2.5v0c0.8-0.4,1.5-1.4,1.5-3.1
	c0-2.2-1.3-3.5-3.9-3.5h-5.9v1.2l0.7,0.1c0.4,0.1,0.7,0.7,0.7,1.7v7.2c0,1-0.2,1.6-0.7,1.7l-0.7,0.1v1.2h5.2v-1.2l-0.5-0.1
	c-0.8-0.1-1-0.8-1-1.7V7.6h2c1,0,1.3,1.3,1.4,2.5c0.3,2.6,0.9,3.3,2.4,3.3c1.2,0,2-0.8,2-3.7v-1H237.9z M233.5,5.6h-2.2V3.2
	c0-1,0.3-1.3,0.7-1.3h1.5c0.7,0,1.4,0.5,1.4,1.9C234.9,5,234.2,5.6,233.5,5.6z M152.2,22.7h0.6l1.3-0.3c0.4-0.3,0.5-0.6,0.5-0.9
	v-0.3c-0.1,0-0.1-0.1-0.1-0.2c0,0,0.1-0.1,0.1-0.2c0-0.6-0.2-1.1-0.7-1.4c-0.1,0-0.3,0-0.6,0c-0.1,0-0.2-0.1-0.3-0.1l0,0
	c-0.2,0.1-0.4,0.1-0.5,0.1c-0.3,0.2-0.5,0.3-0.6,0.4c-0.1,0.1-0.3,0.2-0.3,0.2l-0.1,0.1c-0.1,0-0.1,0.1-0.2,0.1
	c-0.1,0-0.1,0-0.2,0.1c-0.2,0.2-0.2,0.5-0.2,0.8C150.9,22.2,151.4,22.7,152.2,22.7z M56.4,8.6h-1.3v1c0,1.3-0.4,2.4-1.8,2.4
	c-1.1,0-1.4-0.6-1.4-1.4V7.1H54V5.6h-2.1V2.9c0-1,0.3-1.5,1.4-1.5c1,0,1.8,0.8,1.8,2.4v0.9h1.3V0.1h-8.2v1.2l0.7,0.1
	c0.4,0.1,0.7,0.7,0.7,1.7v7.2c0,1-0.2,1.6-0.7,1.7l-0.7,0.1v1.2h8.2V8.6z M164.8,120.5V98.1c0-3,0.9-4.9,2.3-5.2l2.3-0.3V89h-17.3
	v3.7l2.3,0.3c1.4,0.3,2.3,2.1,2.3,5.2v22.4c0,3-0.6,4.8-2.3,5.2l-2.3,0.3v3.7h17.4V126l-2.3-0.3
	C165.4,125.3,164.8,123.5,164.8,120.5z M136,104.1c-5.5-1.4-8-2.6-8-6.3c0-2.5,1.9-5.3,5.9-5.3c3.1,0,6.6,2.1,7.9,3.6
	c1.1,1.2,1.9,3,2.4,5h3.5V89h-3.5c-0.5,0.5-1.1,1-1.9,1c-1.1,0-2.2-0.3-3.3-0.6c-1.4-0.4-3.7-0.8-6-0.8c-7.1,0-12.9,4.3-12.9,11.1
	c0,6.5,2.6,10.1,9,12.5l5.6,2.1c2.4,0.9,6.2,2.5,6.2,6.1c0,2.6-2.2,4.9-5.2,4.9c-4.9,0-8.5-2.1-10.3-4.7c-1.1-1.6-1.9-3-2.2-4.8
	h-3.6v13.9h3.6c0.6-1.2,1.4-2.5,2.6-2.5c1.1,0,2.4,0.6,4.1,1.3c1.6,0.7,4,1.5,6.7,1.5c7.3,0,12.9-4.9,12.9-12.2
	C149.5,110.1,145.4,106.6,136,104.1z M209.1,92.6l2.3,0.3c1.4,0.3,2.3,2.1,2.3,5.2v22.4c0,3-0.6,4.9-2.3,5.2l-2.3,0.3v3.7h28.2
	v-14.6h-4.5v3.2c0,4-1.2,7.3-6.2,7.3c-3.7,0-4.7-1.9-4.7-4.5v-10.6h7.1v-4.6h-7.1v-8.4c0-3,1.1-4.5,4.7-4.5c3.4,0,6.2,2.5,6.2,7.4
	v2.7h4.5V89h-28.2V92.6z M129.1,38.9c0.4,0.5,0.8,0.7,1.3,0.7c0.2,0,0.5-0.1,0.9-0.2c0.6,0,1.3-0.2,2-0.7c0,0,0-0.2,0-0.3l0.4-0.2
	l0.2-0.3c0.5-0.2,0.8-0.4,0.9-0.6c0.1-0.1,0.1-0.2,0.2-0.4c0.1-0.1,0.2-0.3,0.3-0.4l0.3-0.1c0.3-0.2,0.6-0.4,0.8-0.5
	c0.2-0.1,0.4-0.3,0.6-0.4c0.1,0,0.1,0,0.1,0c0,0,0.1,0,0.1,0c0.1,0.1,0.1,0.3,0.1,0.4c0,0.1,0,0.2,0,0.3c0,0.1,0,0.2-0.1,0.4
	c-0.1,0.3-0.1,0.5-0.1,0.6c0.1,0.2,0.1,0.4,0,0.6c0,0.2-0.1,0.3-0.1,0.4c0,0.1,0,0.2,0,0.2c0,0,0,0.1,0.1,0.2
	c0.1,0.7,0.6,1.1,1.3,1.1c0.1,0,0.3-0.1,0.5-0.2c0.2-0.1,0.4-0.2,0.5-0.2c0,0,0.2,0,0.4,0.1c0.2,0,0.3-0.1,0.4-0.1
	c0.1,0,0.2-0.1,0.2-0.1c0.1-0.1,0.1-0.2,0.2-0.4c0.9-0.6,1.5-1.1,1.8-1.5v-0.3c1-0.7,1.5-1.4,1.5-2c0-0.2,0-0.4,0.1-0.5
	c0.2-0.4,0.4-0.7,0.4-0.8c0-0.4-0.2-0.6-0.7-0.6c-0.5,0-0.9,0.2-1.2,0.7l-0.3,0.1c-0.2,0.3-0.4,0.6-0.5,0.8
	c-0.1,0.2-0.2,0.4-0.3,0.5l-0.4,0.2c0,0.2-0.1,0.3-0.1,0.5l-0.1,0c-0.2,0-0.4,0-0.7-0.1l0.4-0.3l-0.2-0.1l-0.1-0.3h0.2
	c0.2-0.1,0.4-0.4,0.6-1.1c0.2-0.7,0.3-1,0.4-1c0.1,0,0.1,0,0.2-0.1c0.1,0,0.1,0,0.2-0.1c0.5-0.7,0.7-1.2,0.7-1.5
	c0-0.6,0.1-0.9,0.2-1c0.3-0.2,0.5-0.4,0.5-0.5c0.1-0.2,0.1-0.3,0.1-0.5c0-0.1,0.1-0.3,0.1-0.4c0.6-0.9,0.9-1.4,0.9-1.6
	c0.1-0.1,0.1-0.2,0.1-0.3c0-0.4-0.2-0.7-0.5-1c-0.3-0.3-0.7-0.4-1.3-0.4c-1,0-1.6,0.3-1.8,0.8c-0.5,1-0.8,1.6-0.9,1.6
	c-0.1,0-0.2,0.1-0.3,0.2c-0.2,0.6-0.4,1-0.6,1.3c-0.1,0.2-0.3,0.3-0.4,0.5c-0.2,0.1-0.3,0.3-0.4,0.5c-0.1,0.1-0.1,0.2-0.1,0.3
	c0,0.1,0,0.2-0.1,0.3c-0.4,0.4-0.7,0.7-1,1c-0.3,0.3-0.5,0.5-0.7,0.7c-1.2,1.4-1.8,2.3-1.9,2.6c-0.1,0.1-0.3,0.2-0.4,0.3
	c-0.1,0.1-0.2,0.2-0.3,0.2h-0.4l0.1-0.2c0-0.5,0.1-1,0.5-1.6c0.4-0.8,0.6-1.4,0.6-1.7l0.3-0.4c0-0.2-0.1-0.3-0.1-0.4
	c0-0.1,0-0.1,0-0.1c0.1,0,0.1,0,0.2-0.1c0,0,0.1,0,0.2-0.1c0.2-0.5,0.4-0.8,0.5-1.1V30l0.4-0.7c-0.1-0.3,0.1-0.7,0.4-1.2
	c0.1,0,0.2-0.1,0.3-0.1c0.1,0,0.2-0.1,0.2-0.1c0-0.2,0.1-0.4,0.1-0.5l-0.1-0.2c-0.4-1-1.1-1.4-2.1-1.4c-0.8,0.2-1.2,0.4-1.3,0.5
	c-0.1,0.1-0.1,0.2-0.1,0.2c0,0,0,0.1-0.1,0.1c-1.5,0.7-2.5,1.8-3.2,3.3c0.2,0.4,0.3,0.6,0.4,0.6l0.5,0.1c0.2-0.1,0.4-0.1,0.5-0.1h0
	v0.8l-0.2,0.5l-0.4,0.2c-0.4,0.6-0.7,1.4-0.8,2.3c-0.3,0.3-0.4,0.5-0.4,0.7v0.8l-0.3,0.2c-0.4,0.7-0.7,1.3-0.9,1.7
	C128.6,38,128.8,38.5,129.1,38.9z M131.1,4.2c0-1.2,0.3-2.6,1.2-2.6c0.8,0,0.9,1.2,0.9,2v6.7c0,1-0.2,1.6-0.7,1.7l-0.7,0.1v1.2h5.1
	v-1.2l-0.6-0.1c-0.5-0.1-0.7-0.7-0.7-1.7V3.7c0-0.8,0.1-2,0.9-2c0.9,0,1.2,1.4,1.2,2.6v1.2h1.2V0.1h-9v5.2h1.2V4.2z M147.3,29.6
	c-0.2,0.2-0.2,0.4-0.2,0.5c0,0.4,0.1,0.6,0.4,0.6c0.3,0,0.5-0.1,0.6-0.2c0,0,0.1-0.1,0.1-0.1c0,0,0.1-0.1,0.1-0.1
	c0.1,0,0.2,0,0.5,0.1v0.5c-0.4,0.7-0.6,1.2-0.7,1.6l-0.1,0l0.2,0.4c0,0.1-0.1,0.2-0.1,0.2c0,0.6,0,0.9-0.2,1.1l0.1,0.2
	c-0.2,0.3-0.4,0.5-0.6,0.6c-0.2,0.2-0.3,0.3-0.5,0.4c0,0.1-0.1,0.2-0.1,0.2c0,0.1,0,0.1,0,0.2c-0.1,0.5-0.3,0.9-0.5,1.2
	c-0.1,0.3-0.3,0.6-0.4,0.9c0.1,0.5,0.1,0.7,0.2,0.8c0,0.1,0.3,0.3,0.8,0.5c0.5,0.2,0.9,0.3,1,0.3c0.2,0,0.5,0,0.7-0.1
	c0.3-0.1,0.6-0.1,0.8-0.2c0.3-0.1,0.5-0.2,0.8-0.3c0.2-0.1,0.4-0.2,0.5-0.4c0.2,0,0.3,0,0.4-0.1c0.1,0,0.2,0,0.2,0
	c0.2-0.2,0.4-0.4,0.6-0.6c0.2-0.2,0.3-0.3,0.4-0.3v-0.5c0.4-0.6,0.6-1.1,0.6-1.4l-0.1-0.3h-0.5c-0.4,0.2-0.7,0.4-1,0.5
	c-0.3,0.2-0.5,0.3-0.7,0.4l-0.1-0.9c0.1-0.1,0.2-0.2,0.3-0.3c0.1-0.1,0.1-0.2,0.2-0.3c0.1-0.4,0.3-0.8,0.4-1.1
	c0.1-0.3,0.2-0.6,0.2-0.8c0.3-0.5,0.4-0.8,0.4-0.9v-0.3c0,0,0-0.1,0-0.2c0.5-0.7,0.8-1.2,1.1-1.6l0-0.2c0,0,0-0.1,0-0.2
	c0-0.1,0-0.2-0.1-0.3l0.3-0.2c0.2-0.5,0.3-0.9,0.3-1.4c0-0.5-0.1-0.8-0.3-0.9c-0.1-0.1-0.3-0.1-0.4-0.2c-0.1-0.1-0.3-0.1-0.4-0.2
	l-0.3-0.1c-0.2,0-0.3,0.1-0.4,0.2c-0.6,0.3-1,0.4-1.3,0.5c-0.1,0.1-0.2,0.2-0.2,0.3c-0.1,0.1-0.1,0.1-0.2,0.2
	c-0.1,0-0.2,0.1-0.3,0.2c-0.2,0.1-0.4,0.2-0.7,0.3c-0.3,0.1-0.6,0.4-0.9,0.8c-0.1,0-0.2,0.1-0.3,0.1c-0.1,0-0.1,0-0.2,0.1
	c-0.1,0.2-0.1,0.4-0.1,0.4L147.3,29.6z M123.8,25.9c-0.1,0-0.3,0-0.4,0c-0.1,0-0.2,0-0.2,0l-1.3,0.9l-0.3,0c-0.1,0-0.1,0.1-0.1,0.1
	c0,0-0.1,0.1-0.1,0.1c-0.3,0.2-0.8,0.4-1.3,0.5c-0.1,0.1-0.3,0.2-0.4,0.5c-0.2,0.2-0.4,0.5-0.7,0.8c-0.6,0.7-0.9,1-0.9,1.2v0.3
	l-0.3,0.1c-0.4,0.6-0.6,1.1-0.7,1.4l-0.2,0.3v0.3c-0.4,0.4-0.5,0.7-0.5,1.1c0,0.4,0.1,0.6,0.2,0.9c0.1,0.1,0.1,0.2,0.2,0.3
	c0,0.1,0.1,0.1,0.1,0.2c0.1,0.7,0.2,1.4,0.4,1.9c0.1,0.5,0.2,0.9,0.4,1.1c0.5,1.2,1.4,1.8,2.6,1.8c0.4,0,1-0.1,1.6-0.3
	c0.4,0,0.6,0,0.7,0c1-0.5,1.8-1,2.4-1.4c0.2-0.3,0.4-0.5,0.6-0.7c0.2-0.2,0.3-0.3,0.4-0.5c0.2-0.2,0.5-0.4,0.7-0.6
	c0.2-0.2,0.4-0.3,0.5-0.4c0.1-0.2,0.1-0.3,0.1-0.4c0-0.1,0-0.2,0.1-0.3l0.3-0.1l0.5-0.9v-0.5c0.1-0.1,0.2-0.2,0.3-0.2
	c0.1-0.5,0.2-1,0.3-1.4c0.1-0.4,0.2-0.9,0.2-1.3l-0.1-0.2c0.1-0.1,0.1-0.2,0.2-0.4l-0.2-0.6c0,0,0-0.1,0.1-0.3c0-0.1,0.1-0.2,0-0.2
	c-0.5-1.1-0.9-1.8-1.3-2.2l-0.4-0.2c-0.1-0.1-0.1-0.2-0.1-0.3c-0.4-0.3-1.4-0.6-2.9-0.8L123.8,25.9z M125.4,28.2
	c0.4,0.3,0.5,0.6,0.5,0.9c0,0.1-0.1,0.3-0.2,0.6c-0.1,0.2-0.2,0.4-0.2,0.6v0.4l0.1,0.1c-0.1,0.6-0.5,1.4-1.1,2.5c-0.7,1.1-1,2-1,2.6
	c0,0-0.2,0.2-0.6,0.6c-0.4,0.4-0.6,0.6-0.7,0.6v0.2c-0.2,0.1-0.4,0.2-0.5,0.2c-0.1,0-0.5,0.2-1.3,0.5l-0.3-0.3l-0.4-0.1
	c-0.1-0.5-0.4-0.8-0.7-1c0-0.4-0.1-0.6-0.1-0.8c0.1-0.1,0.1-0.2,0-0.5c0-0.2,0-0.4,0.2-0.5c0.2-0.4,0.3-0.8,0.3-0.9
	c0,0,0.1-0.1,0.2-0.2c0.3-0.8,0.4-1.2,0.4-1.2v-0.4l0.3-0.2l0-0.4l0.1-0.1c0.5-0.1,0.9-0.6,1.2-1.4c-0.1-0.5,0.3-0.9,0.9-1.3
	c0.1-0.1,0.1-0.2,0.2-0.3c0.1-0.1,0.1-0.2,0.1-0.2c0.5-0.3,0.9-0.4,1.1-0.4C124.7,27.8,125.1,27.9,125.4,28.2z M147.7,6.2h-4v1.6h4
	V6.2z M92.3,12.1L91.6,12c-0.5-0.1-0.7-0.7-0.7-1.7V7.6h2c2.4,0,4.2-1.1,4.2-3.5c0-2.8-1.4-3.9-4-3.9h-5.9v1.2l0.7,0.1
	c0.4,0.1,0.7,0.7,0.7,1.7v7.2c0,1-0.2,1.6-0.7,1.7l-0.7,0.1v1.2h5.1V12.1z M90.9,3.2c0-1,0.4-1.3,1-1.3h1.2c0.7,0,1.4,0.5,1.4,1.9
	c0,1-0.7,1.7-1.4,1.7h-2.2V3.2z M96.7,17.6c0,0.5,0.3,0.7,0.9,0.8c0.2,0.2,0.3,0.3,0.4,0.3c0.1,0,0.1,0,0.3,0c0.1,0,0.3,0,0.4,0
	c0.1,0,0.3,0,0.4-0.1c0.1,0,0.2,0,0.3,0c0.9,0,1.3,0.2,1.3,0.7c0,0.7-0.4,1.5-1.3,2.3c0.1,0.2,0.1,0.3,0.1,0.5
	c0,0.1-0.2,0.5-0.6,1.4c-0.5,0.8-0.7,1.4-0.8,1.5c0,0.3-0.1,0.5-0.1,0.7c0,0.2,0,0.4,0,0.5c-0.3,0.4-0.7,1-1.1,1.9
	c-0.5,1-0.7,1.6-0.8,2c-0.2,0.4-0.3,0.7-0.4,1.1c-0.1,0.3-0.3,0.6-0.4,0.8C95,32.5,95,32.8,95,33c-0.1,0.2-0.2,0.3-0.3,0.4
	c-0.1,0.1-0.1,0.2-0.2,0.3c-0.1,0.1-0.4,0.7-0.8,1.7c-0.4,0.9-0.7,1.4-0.9,1.5c-0.2,0.1-0.4,0.2-0.6,0.2c-0.2,0-0.4,0-0.7-0.1
	c-0.3-0.1-0.6-0.1-0.8-0.1c-0.5,0-1,0.3-1.5,0.8c-0.4,0.4-0.6,0.9-0.6,1.4c0,0.7,0.9,1,2.8,1c0.2,0,0.4,0,0.6-0.1
	c0.4-0.1,0.6-0.2,0.6-0.2c0.8,0.1,1.2,0.2,1.1,0.2c0.2,0,0.5,0,0.8-0.1c0.4-0.1,0.7-0.1,0.9-0.1h0.9c0.3,0,0.7,0,1.1,0
	c0.4,0,0.8,0,1.1,0.1c0.3,0,0.6,0,0.9,0c0.4,0,0.9,0,1.4-0.1c0.5,0,1.2-0.1,1.9-0.2c1.5-0.2,2.6-0.3,3.4-0.3c0.9,0,1.6,0.1,2.1,0.4
	c3.3-0.3,5-0.6,5.3-0.9c0.1-0.7,0.2-1.2,0.3-1.7c0.2-0.1,0.4-0.2,0.5-0.3c0.1-0.1,0.3-0.1,0.4-0.2c0.4-0.3,0.7-0.9,0.7-1.7
	c0-2.5-0.6-3.8-1.9-3.8c-0.5,0-0.8,0.3-0.9,0.8c-0.1,0.3-0.1,0.6-0.2,0.9c-0.1,0.3-0.1,0.6-0.2,0.8c-0.3,0.8-0.8,1.3-1.5,1.6
	c-0.8,0.4-1.8,0.6-2.7,0.6h-0.2c-0.6,0-1.1,0.1-1.5,0.2c-2.6,0.7-4.5,1-5.6,1c-1.1,0-1.7-0.5-1.7-1.6c0,0,0.1,0,0.1-0.1
	c0,0,0.1-0.1,0.1-0.1c0.3-0.1,0.5-0.7,0.5-1.5c0.4-0.3,0.6-0.6,0.7-0.9l0.4-2.4c0.1-0.1,0.1-0.2,0.2-0.4c0.1-0.1,0.2-0.3,0.2-0.4
	c0.1-0.4,0.2-0.7,0.2-1c0.1-0.3,0.1-0.5,0.1-0.7c0,0,0.1-0.1,0.1-0.2c0-0.1,0.1-0.2,0.2-0.3c0.1-0.3,0.2-0.5,0.2-0.6
	c0-0.1,0-0.1,0-0.2l0.6-1.8c0.3-0.4,0.6-0.8,0.8-1.4c0.1-0.4,0.2-0.8,0.3-1.1c0.1-0.3,0.1-0.4,0.2-0.5c0.4-0.4,0.7-0.8,0.7-1.2
	c0.1-0.7,0.1-1,0.2-1.1c0.3-0.1,0.5-0.1,0.7-0.1c0.4-0.3,0.6-0.4,0.7-0.4c0.4,0,0.9,0.1,1.5,0.2c0.7,0.1,1.2,0.2,1.5,0.2
	c0.3,0,0.6-0.1,0.9-0.3c0.3-0.2,0.4-0.5,0.4-0.7c0-0.2-0.3-0.4-0.9-0.8c-0.8-0.5-1.2-0.7-1.3-0.8c-0.2,0-0.3-0.1-0.5-0.1
	c-0.2-0.1-0.4-0.1-0.7-0.3c-0.2,0.1-0.3,0.2-0.4,0.2l-0.3,0c-0.6,0-0.9,0-1.1,0c-0.1,0-0.2,0.1-0.3,0.2c-0.2,0.1-0.3,0.1-0.4,0.1
	c-0.3,0-0.7,0-1.1,0c-0.4,0-0.9,0-1.5-0.1c-1.1-0.1-2-0.1-2.6-0.1C97.6,16.7,96.7,17,96.7,17.6z M82.8,8.6h-1.3v1
	c0,1.3-0.4,2.4-1.8,2.4c-1.1,0-1.4-0.6-1.4-1.4V7.1h2.1V5.6h-2.1V2.9c0-1,0.3-1.5,1.4-1.5c1,0,1.8,0.8,1.8,2.4v0.9h1.3V0.1h-8.2v1.2
	l0.7,0.1c0.4,0.1,0.7,0.7,0.7,1.7v7.2c0,1-0.2,1.6-0.7,1.7l-0.7,0.1v1.2h8.2V8.6z M106.2,13.5c2.6,0,4.4-2.2,4.3-4.9V4.7
	c0-2.6-1.7-4.7-4.3-4.7c-2.6,0-4.3,2.3-4.3,4.7l0,4C101.8,11.6,103.5,13.5,106.2,13.5z M104.7,3.7c0-1.2,0.2-2.3,1.5-2.3
	c1.2,0,1.5,1.1,1.5,2.3v5.6c0,1.4-0.3,2.9-1.5,2.9c-1.3,0-1.5-1.3-1.5-2.9V3.7z M121.2,59.9V43.6H90.3v16.2h4.2v-3.6
	c0-3.8,1.1-8,4.2-8c2.7,0,3,3.8,3,6.3v20.7c0,3-0.6,4.8-2.4,5.2L97,80.7v3.7h17.4v-3.7l-2.2-0.3c-1.9-0.3-2.4-2.2-2.4-5.2V54.5
	c0-2.5,0.3-6.3,3-6.3c3.1,0,4.2,4.2,4.2,8v3.6H121.2z M120.2,12.1l-0.5-0.1c-0.8-0.1-1-0.8-1-1.7V7.6h2c1,0,1.3,1.3,1.4,2.5
	c0.3,2.6,0.9,3.3,2.4,3.3c1.2,0,2-0.8,2-3.7v-1h-1.2v1c0,0.5-0.1,1.2-0.4,1.2c-0.3,0-0.4-0.6-0.5-1.8c-0.1-1.2-0.4-1.9-1.1-2.5v0
	c0.8-0.4,1.5-1.4,1.5-3.1c0-2.2-1.3-3.5-3.9-3.5h-5.9v1.2l0.7,0.1c0.4,0.1,0.7,0.7,0.7,1.7v7.2c0,1-0.2,1.6-0.7,1.7l-0.7,0.1v1.2
	h5.2V12.1z M118.8,3.2c0-1,0.3-1.3,0.7-1.3h1.5c0.7,0,1.4,0.5,1.4,1.9c0,1.1-0.7,1.8-1.4,1.8h-2.2V3.2z"/>
</svg>
